HIERARCHY
ROOT SpineBase
{
  OFFSET 0.000000 0.000000 0.000000
  CHANNELS 6 Xposition Yposition Zposition Zrotation Xrotation Yrotation
  JOINT SpineMid
  {
    OFFSET -0.000000 32.058795 0.000000
    CHANNELS 3 Zrotation Xrotation Yrotation
    JOINT SpineShoulder
    {
      OFFSET 0.590679 23.579405 -0.912521
      CHANNELS 3 Zrotation Xrotation Yrotation
      JOINT Neck
      {
        OFFSET 0.261385 7.688037 -0.531850
        CHANNELS 3 Zrotation Xrotation Yrotation
        JOINT Head
        {
          OFFSET 4.217063 10.422220 1.999565
          CHANNELS 3 Zrotation Xrotation Yrotation
          End Site
          {
            OFFSET 0 0 0
          }
        }
      }
      JOINT ShoulderLeft
      {
        OFFSET -1.974042 -3.665549 -13.236830
        CHANNELS 3 Zrotation Xrotation Yrotation
        JOINT ElbowLeft
        {
          OFFSET 2.437873 -24.375011 -5.658848
          CHANNELS 3 Zrotation Xrotation Yrotation
          JOINT WristLeft
          {
            OFFSET 7.767543 -21.863986 1.103774
            CHANNELS 3 Zrotation Xrotation Yrotation
            JOINT HandLeft
            {
              OFFSET 0.171739 -8.887876 2.504248
              CHANNELS 3 Zrotation Xrotation Yrotation
              JOINT HandTipLeft
              {
                OFFSET 3.543593 -7.800715 -1.597012
                CHANNELS 3 Zrotation Xrotation Yrotation
                End Site
                {
                  OFFSET 0 0 0
                }
              }
              JOINT ThumbLeft
              {
                OFFSET -4.954071 0.149843 1.752185
                CHANNELS 3 Zrotation Xrotation Yrotation
                End Site
                {
                  OFFSET 0 0 0
                }
              }
            }
          }
        }
      }
      JOINT ShoulderRight
      {
        OFFSET 10.321201 -2.797251 17.222734
        CHANNELS 3 Zrotation Xrotation Yrotation
        JOINT ElbowRight
        {
          OFFSET 6.432279 -29.486987 -2.698078
          CHANNELS 3 Zrotation Xrotation Yrotation
          JOINT WristRight
          {
            OFFSET -4.060851 -22.736084 2.242143
            CHANNELS 3 Zrotation Xrotation Yrotation
            JOINT HandRight
            {
              OFFSET -0.846732 -6.640999 -1.848157
              CHANNELS 3 Zrotation Xrotation Yrotation
              JOINT HandTipRight
              {
                OFFSET -1.793197 -7.819020 2.241272
                CHANNELS 3 Zrotation Xrotation Yrotation
                End Site
                {
                  OFFSET 0 0 0
                }
              }
              JOINT ThumbRight
              {
                OFFSET -1.538415 -0.729465 0.456430
                CHANNELS 3 Zrotation Xrotation Yrotation
                End Site
                {
                  OFFSET 0 0 0
                }
              }
            }
          }
        }
      }
    }
  }
  JOINT HipLeft
  {
    OFFSET -2.696207 2.122074 -7.574591
    CHANNELS 3 Zrotation Xrotation Yrotation
    JOINT KneeLeft
    {
      OFFSET 3.283479 -41.718286 3.072036
      CHANNELS 3 Zrotation Xrotation Yrotation
      JOINT AnkleLeft
      {
        OFFSET -15.498415 -23.415323 27.675517
        CHANNELS 3 Zrotation Xrotation Yrotation
        JOINT FootLeft
        {
          OFFSET 10.359531 -3.962685 -7.141091
          CHANNELS 3 Zrotation Xrotation Yrotation
          End Site
          {
            OFFSET 0 0 0
          }
        }
      }
    }
  }
  JOINT HipRight
  {
    OFFSET 2.703875 0.568543 0.370572
    CHANNELS 3 Zrotation Xrotation Yrotation
    JOINT KneeRight
    {
      OFFSET -4.814073 -47.718644 -4.975409
      CHANNELS 3 Zrotation Xrotation Yrotation
      JOINT AnkleRight
      {
        OFFSET 0.978941 -29.422368 1.009481
        CHANNELS 3 Zrotation Xrotation Yrotation
        JOINT FootRight
        {
          OFFSET 9.918848 -3.954482 -6.810005
          CHANNELS 3 Zrotation Xrotation Yrotation
          End Site
          {
            OFFSET 0 0 0
          }
        }
      }
    }
  }
}
MOTION
Frames: 10
Frame Time: 0.033333
12.953821 83.332671 311.479946 -0.000000 0.000000 -55.797264 -0.000000 0.000000 55.797264 -0.000000 0.000000 0.000000 -0.000000 0.000000 0.000000 0.000000 0.000000 0.000000 -0.000000 0.000000 0.000000 -0.000000 0.000000 0.000000 -0.000000 0.000000 0.000000 -0.000000 0.000000 0.000000 0.000000 0.000000 0.000000 0.000000 0.000000 0.000000 -0.000000 0.000000 0.000000 -0.000000 0.000000 0.000000 -0.000000 0.000000 0.000000 -0.000000 0.000000 0.000000 0.000000 0.000000 0.000000 0.000000 0.000000 0.000000 -0.000000 0.000000 55.797264 -0.000000 0.000000 0.000000 -0.000000 0.000000 0.000000 0.000000 0.000000 0.000000 -0.000000 0.000000 55.797264 -0.000000 0.000000 0.000000 -0.000000 0.000000 0.000000 0.000000 0.000000 0.000000
11.868919 84.101490 311.829608 -1.592321 -0.191628 -49.715324 0.883590 1.338510 49.702339 -0.000000 0.000000 0.000000 -0.000000 0.000000 0.000000 0.000000 0.000000 0.000000 -0.000000 0.000000 0.000000 -0.000000 0.000000 0.000000 -0.250969 -0.963274 -0.091224 1.294143 -1.014257 -1.024431 0.000000 0.000000 0.000000 0.000000 0.000000 0.000000 -0.000000 0.000000 0.000000 -0.000000 0.000000 0.000000 -0.000000 0.000000 0.000000 -0.000000 0.000000 0.000000 0.000000 0.000000 0.000000 0.000000 0.000000 0.000000 0.554940 3.596466 49.962364 -1.517739 -1.703911 -0.268443 -5.852322 -4.061634 -0.342447 0.000000 0.000000 0.000000 1.908511 2.148664 49.563418 -1.281018 0.254607 0.110582 -0.000000 0.000000 0.000000 0.000000 0.000000 0.000000
11.001563 84.701596 312.074385 -2.884786 -0.301174 -43.970458 1.702023 0.970443 43.912809 0.985687 0.784291 0.011759 -0.330271 0.956986 -0.320217 0.000000 0.000000 0.000000 -0.000000 0.000000 0.000000 -0.000000 0.000000 0.000000 -0.551377 -1.727925 -0.196247 2.246890 -1.925142 -1.826264 0.000000 0.000000 0.000000 0.000000 0.000000 0.000000 -0.000000 0.000000 0.000000 -0.000000 0.000000 0.000000 -0.000000 0.000000 0.000000 -0.000000 0.000000 0.000000 0.000000 0.000000 0.000000 0.000000 0.000000 0.000000 1.739680 6.197447 44.365282 -2.692275 -2.932914 -0.498092 -11.380952 -7.805122 -1.034948 0.000000 0.000000 0.000000 3.820092 3.420198 43.645858 -3.059564 0.141418 0.159281 0.821138 0.334578 0.036903 0.000000 0.000000 0.000000
10.351754 85.132988 312.214276 -3.848858 -0.323978 -39.284569 2.355417 1.070318 39.194936 0.891355 0.305443 0.012581 -0.019611 2.007201 -0.426866 0.000000 0.000000 0.000000 0.456037 0.681111 0.005683 -0.144395 0.879217 0.306436 -0.774242 -3.177493 -0.633265 2.897606 -2.746836 -2.424539 0.000000 0.000000 0.000000 0.000000 0.000000 0.000000 0.456037 0.681111 0.005683 -0.000000 0.000000 0.000000 -0.000000 0.000000 0.000000 -0.000000 0.000000 0.000000 0.000000 0.000000 0.000000 0.000000 0.000000 0.000000 3.117927 7.828768 39.733088 -3.554867 -3.733773 -0.671759 -15.934607 -10.775347 -1.860281 0.000000 0.000000 0.000000 5.453003 3.975640 38.820526 -3.805098 0.225227 0.210376 0.195777 -0.004972 0.161870 0.000000 0.000000 0.000000
9.919490 85.395666 312.249282 -4.463933 -0.257461 -36.274459 2.768104 1.037567 36.165697 1.022856 0.251683 0.014232 -0.013338 2.427599 -0.510115 0.000000 0.000000 0.000000 0.594678 0.806793 0.009528 -0.226228 1.005299 0.348119 -1.097516 -3.691985 -0.813790 3.273410 -3.493846 -2.834611 0.000000 0.000000 0.000000 0.000000 0.000000 0.000000 0.594678 0.806793 0.009528 -0.000000 0.000000 0.000000 -0.000000 0.000000 0.000000 -0.000000 0.000000 0.000000 0.000000 0.000000 0.000000 0.000000 0.000000 0.000000 4.274917 8.631082 36.726129 -4.127660 -4.138449 -0.779269 -18.925558 -12.654578 -2.514335 0.000000 0.000000 0.000000 6.578623 4.058052 35.738500 -4.044036 0.322723 0.238931 -0.027660 0.000515 0.181048 0.000000 0.000000 0.000000
9.704771 85.489631 312.179403 -4.717537 -0.101050 -35.320172 2.903281 0.957466 35.207830 1.067769 0.117034 0.015574 -0.001218 2.721674 -0.564391 0.000000 0.000000 0.000000 0.726429 0.881496 0.014706 -0.324504 1.048071 0.359467 -1.451229 -3.944446 -0.975757 3.389820 -4.179568 -3.068235 0.000000 0.000000 0.000000 0.000000 0.000000 0.000000 0.726429 0.881496 0.014706 -0.000000 0.000000 0.000000 -0.000000 0.000000 0.000000 -0.000000 0.000000 0.000000 0.000000 0.000000 0.000000 0.000000 0.000000 0.000000 4.941071 8.772617 35.761260 -4.424401 -4.164310 -0.815083 -19.966153 -13.291675 -2.744952 0.000000 0.000000 0.000000 7.077866 3.880006 34.788355 -3.302754 0.994974 0.271728 -0.878210 -0.546284 0.141869 0.000000 0.000000 0.000000
9.565227 85.111237 311.676616 -4.611168 0.576960 -38.247337 2.668243 0.659125 38.154605 1.126296 -0.299972 0.020816 0.036278 2.889853 -0.574645 0.000000 0.000000 0.000000 0.981050 0.859182 0.031327 -0.442598 0.894571 0.299457 -1.898212 -3.426433 -1.079596 3.218667 -4.734035 -2.868750 0.000000 0.000000 0.000000 0.000000 0.000000 0.000000 0.981050 0.859182 0.031327 -0.000000 0.000000 0.000000 -0.000000 0.000000 0.000000 -0.000000 0.000000 0.000000 0.000000 0.000000 0.000000 0.000000 0.000000 0.000000 5.583992 7.818681 38.640668 -4.640183 -3.224504 -0.727212 -18.253644 -12.225685 -2.270918 0.000000 0.000000 0.000000 7.271228 3.201532 37.845369 -3.085721 1.388119 0.218286 -0.860868 -0.537979 0.132659 0.000000 0.000000 0.000000
9.839364 84.849649 311.868380 -4.002947 0.113311 -41.162640 1.692172 0.910307 41.065547 0.994465 -0.555849 0.017341 0.064770 2.972071 -0.564067 0.000000 0.000000 0.000000 1.135354 0.873110 0.040243 -0.580428 0.626607 0.196895 -2.427402 -2.892009 -1.166587 1.942696 -4.595425 -2.155028 0.000000 0.000000 0.000000 0.000000 0.000000 0.000000 1.135354 0.873110 0.040243 -0.000000 0.000000 0.000000 -0.000000 0.000000 0.000000 -0.000000 0.000000 0.000000 0.000000 0.000000 0.000000 0.000000 0.000000 0.000000 4.291588 7.769251 41.556534 -4.366175 -3.105490 -0.685243 -13.563705 -9.205339 -1.206669 0.000000 0.000000 0.000000 5.576786 3.408925 40.812889 -1.153378 0.517356 0.188507 -2.096138 -0.044153 0.108757 0.000000 0.000000 0.000000
10.475287 84.608622 311.392954 -2.987270 0.738386 -45.111260 1.273097 0.327756 45.043144 0.674665 -0.871170 0.010477 0.112881 2.839955 -0.534503 0.000000 0.000000 0.000000 1.182296 0.805491 0.046134 -0.740360 0.475787 0.135068 -3.030725 -2.903855 -1.341574 1.640930 -5.912869 -2.482453 0.000000 0.000000 0.000000 0.000000 0.000000 0.000000 1.182296 0.805491 0.046134 -0.000000 0.000000 0.000000 -0.000000 0.000000 0.000000 -0.000000 0.000000 0.000000 0.000000 0.000000 0.000000 0.000000 0.000000 0.000000 3.708385 5.485693 45.442117 -3.528717 -1.960326 -0.475175 -6.777261 -4.618659 -0.164577 0.000000 0.000000 0.000000 4.538881 1.765644 45.008908 0.488518 0.828081 0.063376 -1.920857 1.224987 1.929742 0.000000 0.000000 0.000000
10.883867 84.428231 311.050824 -2.387504 1.110145 -48.762191 1.033948 0.135957 48.704726 0.406229 -1.138981 0.003713 0.212906 2.620274 -0.497930 0.000000 0.000000 0.000000 1.198110 0.718505 0.050986 -0.910771 0.385168 0.094201 -3.223521 -2.875544 -1.410712 0.777534 -6.489320 -2.493168 0.000000 0.000000 0.000000 0.000000 0.000000 0.000000 1.198110 0.718505 0.050986 -0.000000 0.000000 0.000000 -0.000000 0.000000 0.000000 -0.000000 0.000000 0.000000 0.000000 0.000000 0.000000 0.000000 0.000000 0.000000 3.638981 3.954478 49.005747 -2.988959 -0.966390 -0.321886 -9.220760 -6.317491 -0.565147 0.000000 0.000000 0.000000 3.948724 0.912497 48.769322 1.686187 0.878648 0.004884 -3.228535 -0.221017 -0.482757 0.000000 0.000000 0.000000
